<svg id="visual" viewBox="0 0 900 600" width="900" height="600" xmlns="http://www.w3.org/2000/svg" xmlns:xlink="http://www.w3.org/1999/xlink" version="1.1"><rect x="0" y="0" width="900" height="600" fill="#001220"></rect><path d="M0 393L25 401C50 409 100 425 150 429.5C200 434 250 427 300 421.8C350 416.7 400 413.3 450 410.3C500 407.3 550 404.7 600 409.8C650 415 700 428 750 419.3C800 410.7 850 380.3 875 365.2L900 350L900 601L875 601C850 601 800 601 750 601C700 601 650 601 600 601C550 601 500 601 450 601C400 601 350 601 300 601C250 601 200 601 150 601C100 601 50 601 25 601L0 601Z" fill="#cccccc"></path><path d="M0 427L25 421.3C50 415.7 100 404.3 150 408.5C200 412.7 250 432.3 300 440.7C350 449 400 446 450 436.3C500 426.7 550 410.3 600 410.5C650 410.7 700 427.3 750 436.8C800 446.3 850 448.7 875 449.8L900 451L900 601L875 601C850 601 800 601 750 601C700 601 650 601 600 601C550 601 500 601 450 601C400 601 350 601 300 601C250 601 200 601 150 601C100 601 50 601 25 601L0 601Z" fill="#95989d"></path><path d="M0 487L25 479.8C50 472.7 100 458.3 150 453.5C200 448.7 250 453.3 300 455C350 456.7 400 455.3 450 462.5C500 469.7 550 485.3 600 485C650 484.7 700 468.3 750 468.7C800 469 850 486 875 494.5L900 503L900 601L875 601C850 601 800 601 750 601C700 601 650 601 600 601C550 601 500 601 450 601C400 601 350 601 300 601C250 601 200 601 150 601C100 601 50 601 25 601L0 601Z" fill="#616771"></path><path d="M0 500L25 507C50 514 100 528 150 535.2C200 542.3 250 542.7 300 541.3C350 540 400 537 450 531.5C500 526 550 518 600 511.5C650 505 700 500 750 499.8C800 499.7 850 504.3 875 506.7L900 509L900 601L875 601C850 601 800 601 750 601C700 601 650 601 600 601C550 601 500 601 450 601C400 601 350 601 300 601C250 601 200 601 150 601C100 601 50 601 25 601L0 601Z" fill="#303a48"></path><path d="M0 564L25 564.5C50 565 100 566 150 560.8C200 555.7 250 544.3 300 540.7C350 537 400 541 450 542.7C500 544.3 550 543.7 600 548C650 552.3 700 561.7 750 560.5C800 559.3 850 547.7 875 541.8L900 536L900 601L875 601C850 601 800 601 750 601C700 601 650 601 600 601C550 601 500 601 450 601C400 601 350 601 300 601C250 601 200 601 150 601C100 601 50 601 25 601L0 601Z" fill="#001122"></path></svg>