<svg id="visual" viewBox="0 0 540 600" width="540" height="600" xmlns="http://www.w3.org/2000/svg" xmlns:xlink="http://www.w3.org/1999/xlink" version="1.1"><rect x="0" y="0" width="540" height="600" fill="#001220"></rect><path d="M0 432L9 424.3C18 416.7 36 401.3 54 399.8C72 398.3 90 410.7 108 413.7C126 416.7 144 410.3 162 397.8C180 385.3 198 366.7 216 359.2C234 351.7 252 355.3 270 365.2C288 375 306 391 324 393.3C342 395.7 360 384.3 378 387.2C396 390 414 407 432 414.2C450 421.3 468 418.7 486 417.3C504 416 522 416 531 416L540 416L540 601L531 601C522 601 504 601 486 601C468 601 450 601 432 601C414 601 396 601 378 601C360 601 342 601 324 601C306 601 288 601 270 601C252 601 234 601 216 601C198 601 180 601 162 601C144 601 126 601 108 601C90 601 72 601 54 601C36 601 18 601 9 601L0 601Z" fill="#cccccc"></path><path d="M0 451L9 451.7C18 452.3 36 453.7 54 445.5C72 437.3 90 419.7 108 408.2C126 396.7 144 391.3 162 398.8C180 406.3 198 426.7 216 439.3C234 452 252 457 270 450.8C288 444.7 306 427.3 324 425.8C342 424.3 360 438.7 378 435.8C396 433 414 413 432 412.2C450 411.3 468 429.7 486 430.5C504 431.3 522 414.7 531 406.3L540 398L540 601L531 601C522 601 504 601 486 601C468 601 450 601 432 601C414 601 396 601 378 601C360 601 342 601 324 601C306 601 288 601 270 601C252 601 234 601 216 601C198 601 180 601 162 601C144 601 126 601 108 601C90 601 72 601 54 601C36 601 18 601 9 601L0 601Z" fill="#a0a2a6"></path><path d="M0 435L9 440.5C18 446 36 457 54 466.7C72 476.3 90 484.7 108 478.2C126 471.7 144 450.3 162 446.8C180 443.3 198 457.7 216 459.8C234 462 252 452 270 451.8C288 451.7 306 461.3 324 459.2C342 457 360 443 378 445C396 447 414 465 432 469.3C450 473.7 468 464.3 486 455C504 445.7 522 436.3 531 431.7L540 427L540 601L531 601C522 601 504 601 486 601C468 601 450 601 432 601C414 601 396 601 378 601C360 601 342 601 324 601C306 601 288 601 270 601C252 601 234 601 216 601C198 601 180 601 162 601C144 601 126 601 108 601C90 601 72 601 54 601C36 601 18 601 9 601L0 601Z" fill="#757a82"></path><path d="M0 491L9 487.3C18 483.7 36 476.3 54 480.7C72 485 90 501 108 508.8C126 516.7 144 516.3 162 508.3C180 500.3 198 484.7 216 476.7C234 468.7 252 468.3 270 477.3C288 486.3 306 504.7 324 503.5C342 502.3 360 481.7 378 476.5C396 471.3 414 481.7 432 482.3C450 483 468 474 486 473.5C504 473 522 481 531 485L540 489L540 601L531 601C522 601 504 601 486 601C468 601 450 601 432 601C414 601 396 601 378 601C360 601 342 601 324 601C306 601 288 601 270 601C252 601 234 601 216 601C198 601 180 601 162 601C144 601 126 601 108 601C90 601 72 601 54 601C36 601 18 601 9 601L0 601Z" fill="#4d5460"></path><path d="M0 525L9 523C18 521 36 517 54 512.8C72 508.7 90 504.3 108 504C126 503.7 144 507.3 162 507C180 506.7 198 502.3 216 501.7C234 501 252 504 270 505.3C288 506.7 306 506.3 324 513C342 519.7 360 533.3 378 532.3C396 531.3 414 515.7 432 514.3C450 513 468 526 486 526.7C504 527.3 522 515.7 531 509.8L540 504L540 601L531 601C522 601 504 601 486 601C468 601 450 601 432 601C414 601 396 601 378 601C360 601 342 601 324 601C306 601 288 601 270 601C252 601 234 601 216 601C198 601 180 601 162 601C144 601 126 601 108 601C90 601 72 601 54 601C36 601 18 601 9 601L0 601Z" fill="#273140"></path><path d="M0 543L9 547.2C18 551.3 36 559.7 54 559.8C72 560 90 552 108 549.3C126 546.7 144 549.3 162 548.3C180 547.3 198 542.7 216 543C234 543.3 252 548.7 270 550.2C288 551.7 306 549.3 324 552.7C342 556 360 565 378 568.2C396 571.3 414 568.7 432 564.3C450 560 468 554 486 552.5C504 551 522 554 531 555.5L540 557L540 601L531 601C522 601 504 601 486 601C468 601 450 601 432 601C414 601 396 601 378 601C360 601 342 601 324 601C306 601 288 601 270 601C252 601 234 601 216 601C198 601 180 601 162 601C144 601 126 601 108 601C90 601 72 601 54 601C36 601 18 601 9 601L0 601Z" fill="#001122"></path></svg>